<?xml version="1.0" encoding="UTF-8" standalone="no"?>
<svg
   xmlns:dc="http://purl.org/dc/elements/1.1/"
   xmlns:cc="http://creativecommons.org/ns#"
   xmlns:rdf="http://www.w3.org/1999/02/22-rdf-syntax-ns#"
   xmlns:svg="http://www.w3.org/2000/svg"
   xmlns="http://www.w3.org/2000/svg"
   xmlns:sodipodi="http://sodipodi.sourceforge.net/DTD/sodipodi-0.dtd"
   xmlns:inkscape="http://www.inkscape.org/namespaces/inkscape"
   inkscape:version="1.0 (4035a4fb49, 2020-05-01)"
   sodipodi:docname="BigQuery.svg"
   version="1.1"
   viewBox="0 0 128 128"
   height="128"
   width="128"
   data-name="Layer 1"
   id="Layer_1">
  <metadata
     id="metadata26">
    <rdf:RDF>
      <cc:Work
         rdf:about="">
        <dc:format>image/svg+xml</dc:format>
        <dc:type
           rdf:resource="http://purl.org/dc/dcmitype/StillImage" />
      </cc:Work>
    </rdf:RDF>
  </metadata>
  <defs
     id="defs24" />
  <sodipodi:namedview
     inkscape:current-layer="Layer_1"
     inkscape:window-maximized="0"
     inkscape:window-y="34"
     inkscape:window-x="0"
     inkscape:cy="64"
     inkscape:cx="64"
     inkscape:zoom="6.5546875"
     showgrid="false"
     id="namedview22"
     inkscape:window-height="2098"
     inkscape:window-width="1920"
     inkscape:pageshadow="2"
     inkscape:pageopacity="0"
     guidetolerance="10"
     gridtolerance="10"
     objecttolerance="10"
     borderopacity="1"
     bordercolor="#666666"
     pagecolor="#ffffff" />
  <title
     id="title2">BigQuery</title>
  <path
     id="path4"
     style="fill:#000000"
     d="M126.47,58.12l-26.3-45.74A11.56,11.56,0,0,0,90.31,6.5H37.7a11.55,11.55,0,0,0-9.86,5.88L1.53,58a11.48,11.48,0,0,0,0,11.44l26.3,46a11.77,11.77,0,0,0,9.86,6.09H90.3a11.73,11.73,0,0,0,9.87-6.06l26.3-45.74A11.73,11.73,0,0,0,126.47,58.12Z" />
  <g
     id="art">
    <g
       id="g18">
      <path
         id="path8"
         style="fill: #fff"
         d="M64,40.8A23.19,23.19,0,1,0,87.19,64,23.19,23.19,0,0,0,64,40.8M64,81.6A17.6,17.6,0,1,1,81.6,64,17.6,17.6,0,0,1,64,81.6" />
      <path
         id="path10"
         style="fill: #fff"
         d="M53,63.1v7.21a12.79,12.79,0,0,0,4.38,4.48V63.1Z" />
      <path
         id="path12"
         style="fill: #fff"
         d="M61.67,57V76.44a11.78,11.78,0,0,0,4.38,0V57Z" />
      <path
         id="path14"
         style="fill: #fff"
         d="M70.77,66.1v8.56A12.78,12.78,0,0,0,75.15,70V66.1Z" />
      <path
         id="path16"
         style="fill: #fff"
         d="M80.69,78.29l-2.4,2.41a1.09,1.09,0,0,0,0,1.53l9.11,9.11a1.09,1.09,0,0,0,1.54,0l2.4-2.4a1.09,1.09,0,0,0,0-1.53l-9.12-9.12a1.09,1.09,0,0,0-1.53,0" />
    </g>
  </g>
</svg>
